<svg width="12" height="12" viewBox="0 0 12 12" fill="none" xmlns="http://www.w3.org/2000/svg">
<path d="M0.321429 4.5H11.6786C11.8554 4.5 12 4.62656 12 4.78125V10.875C12 11.4961 11.4241 12 10.7143 12H1.28571C0.575893 12 0 11.4961 0 10.875V4.78125C0 4.62656 0.144643 4.5 0.321429 4.5ZM12 3.46875V2.625C12 2.00391 11.4241 1.5 10.7143 1.5H9.42857V0.28125C9.42857 0.126563 9.28393 0 9.10714 0H8.03571C7.85893 0 7.71429 0.126563 7.71429 0.28125V1.5H4.28571V0.28125C4.28571 0.126563 4.14107 0 3.96429 0H2.89286C2.71607 0 2.57143 0.126563 2.57143 0.28125V1.5H1.28571C0.575893 1.5 0 2.00391 0 2.625V3.46875C0 3.62344 0.144643 3.75 0.321429 3.75H11.6786C11.8554 3.75 12 3.62344 12 3.46875Z" fill="#053E6B"/>
</svg>
