<svg width="36" height="33" viewBox="0 0 36 33" fill="none" xmlns="http://www.w3.org/2000/svg">
<path d="M32.625 0.402435H3.375C1.51102 0.402435 0 2.22089 0 4.46413V28.8343C0 31.0775 1.51102 32.896 3.375 32.896H32.625C34.489 32.896 36 31.0775 36 28.8343V4.46413C36 2.22089 34.489 0.402435 32.625 0.402435ZM32.625 4.46413V7.91699C31.0485 9.46204 28.5351 11.8645 23.1619 16.928C21.9777 18.049 19.6321 20.7419 18 20.7106C16.3682 20.7423 14.0218 18.0485 12.8381 16.928C7.46578 11.8653 4.95176 9.46229 3.375 7.91699V4.46413H32.625ZM3.375 28.8343V13.1289C4.98614 14.6733 7.27095 16.8404 10.7535 20.1223C12.2903 21.5781 14.9816 24.792 18 24.7725C21.0035 24.792 23.6608 21.6248 25.2459 20.123C28.7284 16.8412 31.0138 14.6734 32.625 13.129V28.8343H3.375Z" fill="white"/>
</svg>
