<svg width="36" height="34" viewBox="0 0 36 34" fill="none" xmlns="http://www.w3.org/2000/svg">
<path d="M30.608 5.33756C27.2411 2.29129 22.7571 0.615845 17.992 0.615845C8.15625 0.615845 0.152679 7.83985 0.152679 16.7175C0.152679 19.5535 0.972321 22.3241 2.53125 24.7684L0 33.1093L9.45804 30.8682C12.0616 32.1519 14.9946 32.8265 17.9839 32.8265H17.992C27.8196 32.8265 36 25.6025 36 16.7248C36 12.4238 33.975 8.38382 30.608 5.33756ZM17.992 30.1139C15.3241 30.1139 12.7125 29.4683 10.4384 28.2498L9.9 27.9597L4.29107 29.287L5.78571 24.3477L5.43214 23.84C3.94554 21.7076 3.16607 19.2488 3.16607 16.7175C3.16607 9.34122 9.81964 3.33572 18 3.33572C21.9616 3.33572 25.6821 4.7283 28.4786 7.2596C31.275 9.79091 32.9946 13.1491 32.9866 16.7248C32.9866 24.1084 26.1643 30.1139 17.992 30.1139ZM26.1241 20.0902C25.6821 19.8871 23.4884 18.9152 23.0786 18.7846C22.6688 18.6468 22.3714 18.5816 22.0741 18.9877C21.7768 19.3939 20.925 20.2933 20.6598 20.5689C20.4027 20.8372 20.1375 20.8735 19.6955 20.6704C17.0759 19.4882 15.3563 18.5598 13.6286 15.8834C13.1705 15.1726 14.0866 15.2234 14.9384 13.6858C15.083 13.4174 15.0107 13.1853 14.8982 12.9822C14.7857 12.7791 13.8938 10.7991 13.5241 9.99399C13.1625 9.21067 12.7929 9.31946 12.5196 9.30496C12.2625 9.29045 11.9652 9.29045 11.6679 9.29045C11.3705 9.29045 10.8884 9.39199 10.4786 9.79091C10.0687 10.1971 8.91964 11.169 8.91964 13.1491C8.91964 15.1291 10.5188 17.0439 10.7357 17.3123C10.9607 17.5806 13.8777 21.6423 18.3536 23.3903C21.1821 24.4928 22.2911 24.5871 23.7054 24.3985C24.5652 24.2824 26.3411 23.4266 26.7107 22.4837C27.0804 21.5408 27.0804 20.7357 26.9679 20.5689C26.8634 20.3876 26.5661 20.286 26.1241 20.0902Z" fill="white"/>
</svg>
